<svg width="512" height="512" viewBox="0 0 512 512" fill="none" xmlns="http://www.w3.org/2000/svg">
<path d="M372.7 321.4L372.483 321.626C367.835 326.468 363.57 331.664 359.726 337.167L356.608 341.632C353.743 345.734 351.295 350.111 349.3 354.7L345.4 364.6L341.662 373.322C339.357 378.699 336.639 383.89 333.532 388.846L328.644 396.644C326.624 399.867 324.188 402.811 321.4 405.4L319.407 407.031C318.54 407.74 317.784 408.573 317.163 409.505C316.591 410.364 315.902 411.141 315.118 411.813L313.741 412.994C312.649 413.929 311.642 414.96 310.732 416.073L309.4 417.7L305.5 421.9C303.705 423.496 301.746 424.896 299.655 426.078L299.068 426.41C296.96 427.601 294.964 428.98 293.105 430.529L292.3 431.2C288.316 433.789 284.019 435.86 279.511 437.363L278.2 437.8C270.035 439.991 261.618 441.1 253.165 441.1H239.721C232.617 441.1 225.558 439.987 218.8 437.8L202.6 434.8L195.717 432.637C193.324 431.885 191.081 430.721 189.088 429.197C187.701 428.136 186.191 427.248 184.59 426.552L184.11 426.344C181.456 425.189 179.014 423.597 176.887 421.634L176.2 421L173.2 417.7C171.02 415.52 169.276 412.944 168.062 410.11L167.2 408.1L163.3 400.9L160.3 394.6L157 388L153.4 377.8L150.4 368.2L147.1 358.9L143.8 348.4L140.2 338.2L133.6 324.7L132.576 322.698C128.864 315.444 124.593 308.49 119.8 301.9L116.36 297.986C112.866 294.01 108.904 290.472 104.559 287.449L98.8085 283.449C97.8074 282.753 96.9043 281.925 96.1236 280.988C94.9209 279.545 93.4325 278.366 91.7522 277.526L87.7 275.5L80.8 271.9L73.6 268.9L65.2 265.9L63.4552 265.438C57.8465 263.953 52.4751 261.685 47.5 258.7L44.9695 257.097C40.7244 254.409 37.2213 250.698 34.781 246.306C32.3013 241.842 31 236.821 31 231.714V216.662C31 213.943 31.7678 211.279 33.215 208.976C35.9328 204.652 40.7317 202.085 45.8367 202.225L66.5737 202.79C69.18 202.861 71.6844 203.818 73.6748 205.502C74.2237 205.966 74.8151 206.378 75.4411 206.732L78.2551 208.322C80.3458 209.504 82.3051 210.905 84.1 212.5L84.3832 212.811C86.1903 214.799 87.8032 216.955 89.2 219.25L90.6086 221.564C91.0685 222.32 91.5995 223.029 92.1945 223.684C93.5808 225.209 94.6101 227.023 95.2077 228.996L97.3 235.9C99.0977 239.895 101.181 243.755 103.532 247.451L104.2 248.5L112.9 258.7L121.3 268L121.578 268.402C123.169 270.7 125.294 272.575 127.772 273.868L128.97 274.493C130.243 275.157 131.369 276.073 132.279 277.185C133.151 278.252 134.223 279.138 135.434 279.795L144.1 284.5L151.845 289.376C157.369 292.854 163.764 294.7 170.292 294.7H173.46C175.863 294.7 178.244 294.232 180.469 293.322C182.604 292.448 184.557 291.184 186.228 289.593L187.241 288.627C189.06 286.895 190.499 284.802 191.465 282.483L192.373 280.305C192.786 279.314 193.41 278.424 194.202 277.698C195.73 276.298 196.6 274.32 196.6 272.247V267.846C196.6 266.216 195.953 264.653 194.8 263.5C193.647 262.347 193 260.784 193 259.154V248.525C193 246.754 192.439 245.029 191.397 243.596C190.869 242.87 190.461 242.064 190.189 241.208L186.4 229.3L183.4 218.8L182.064 213.579C180.76 208.482 178.789 203.58 176.2 199L173.2 192.7L170.2 186.7L166.6 179.8L163.6 173.2C161.411 168.822 158.618 164.772 155.304 161.17L153.4 159.1L146.8 153.4L144.1 150.4L139.9 146.5C138.124 144.921 136.672 142.996 135.647 140.852C134.497 138.448 133.9 135.817 133.9 133.151V110.75C133.9 108.274 134.828 105.887 136.501 104.062C136.966 103.555 137.376 103.002 137.726 102.41L139.856 98.8057C140.682 97.4075 141.681 96.1189 142.829 94.9705C143.675 94.1253 144.596 93.3603 145.583 92.6854L147.962 91.0573C149.185 90.2206 150.477 89.4896 151.824 88.8723C155.235 87.3092 158.942 86.5 162.694 86.5H167.92C171.545 86.5 175.076 87.656 178 89.8L180.779 91.6062C182.913 92.9931 184.81 94.7128 186.4 96.7L190.3 103.3C192.47 107.048 193.735 111.251 193.994 115.575L196.6 159.1L199.02 170.981C199.604 173.849 200.541 176.635 201.807 179.274C202.932 181.618 203.797 184.078 204.386 186.61L206.5 195.7L209.8 205.9L213.1 215.5L214.469 219.855C215.754 223.943 217.404 227.908 219.4 231.7L222.7 238.6L224.393 241.986C225.65 244.5 227.425 246.72 229.6 248.5L231.015 249.679C232.453 250.878 233.602 252.385 234.377 254.089C235.556 256.684 237.591 258.796 240.14 260.07L242.117 261.058C242.958 261.479 243.674 262.112 244.196 262.894C245.198 264.397 246.885 265.3 248.692 265.3H254.416C257.528 265.3 260.497 263.994 262.6 261.7L263.375 261.054C265.236 259.503 266.739 257.567 267.781 255.38C268.718 253.412 270.03 251.646 271.642 250.18L272.5 249.4L273.564 248.549C275.818 246.745 277.582 244.403 278.692 241.738L279.542 239.7C279.844 238.974 280.286 238.314 280.842 237.758L282.155 236.445C282.686 235.914 282.932 235.161 282.818 234.418L282.67 233.456C282.528 232.532 283.242 231.7 284.176 231.7C285.018 231.7 285.7 231.018 285.7 230.176V224.8C285.7 223.806 286.506 223 287.5 223C288.494 223 289.3 222.194 289.3 221.2V213.7C289.3 212.706 290.106 211.9 291.1 211.9C292.094 211.9 292.9 211.094 292.9 210.1V204.643C292.9 203.129 293.431 201.663 294.4 200.5C295.369 199.337 295.9 197.871 295.9 196.357V188.03C295.9 186.61 296.499 185.255 297.55 184.3C298.601 183.345 299.2 181.99 299.2 180.57V140.424C299.2 137.907 298.636 135.421 297.55 133.15C296.464 130.879 295.9 128.393 295.9 125.876V107.518C295.9 104.527 296.396 101.556 297.369 98.7279L298.224 96.2402C298.868 94.3669 299.891 92.6463 301.229 91.1861C302.073 90.2659 302.793 89.2401 303.372 88.1344L304.084 86.7754C305.222 84.6026 306.66 82.6005 308.356 80.828L308.499 80.678C311.073 77.9871 314.164 75.8439 317.587 74.3771L318.7 73.9L323.721 71.9219C326.945 70.652 330.379 70 333.844 70C337.511 70 341.142 70.7305 344.524 72.1488L348.7 73.9L349.71 74.3327C353.204 75.8305 356.381 77.9813 359.07 80.6699L360.18 81.78C361.322 82.9216 362.306 84.2102 363.107 85.6119C364.675 88.3564 365.5 91.4626 365.5 94.6236V110.911C365.5 114.41 364.888 117.882 363.693 121.17L362.955 123.197C362.257 125.118 361.231 126.903 359.923 128.473C359.242 129.289 358.637 130.166 358.114 131.091L357.259 132.603C355.759 135.257 353.935 137.716 351.829 139.922L351.36 140.414C349.59 142.267 347.993 144.278 346.587 146.42L342.4 152.8L337.651 159.329C336.021 161.571 334.618 163.969 333.464 166.489C332.423 168.758 331.589 171.117 330.97 173.535L328.6 182.8L325.3 192.7L322.6 206.5L319 217L315.858 229.832C315.555 231.068 315.039 232.242 314.333 233.301C313.075 235.187 312.434 237.417 312.499 239.683L313.045 258.999C313.214 264.976 314.131 270.909 315.774 276.658L316.3 278.5L318.424 284.163C318.805 285.18 319.359 286.124 320.06 286.953L321.711 288.904C322.091 289.353 322.3 289.923 322.3 290.512C322.3 291.086 322.499 291.643 322.863 292.088L325 294.7C327.497 297.197 330.884 298.6 334.415 298.6H345.132C347.406 298.6 349.577 297.649 351.12 295.978C351.898 295.135 352.845 294.467 353.899 294.015L358.6 292L364.481 288.942C365.549 288.386 366.493 287.619 367.256 286.688C368.266 285.452 369.592 284.512 371.092 283.967L372.843 283.33C374.518 282.721 376.006 281.684 377.158 280.323C378.172 279.124 379.449 278.174 380.89 277.548L383.185 276.55C384.781 275.856 386.232 274.868 387.462 273.638C388.218 272.882 389.059 272.216 389.969 271.653L394.9 268.6C397.297 266.802 399.563 264.837 401.682 262.718L405.1 259.3L412 252.7L418.3 246.1L424.6 238.6L426.277 236.02C427.753 233.75 428.922 231.295 429.756 228.719L430.427 226.643C431.332 223.847 432.823 221.275 434.8 219.1L435.679 218.221C437.285 216.615 439.11 215.244 441.1 214.15L442.873 213.175C443.687 212.727 444.434 212.167 445.091 211.509C447.127 209.473 449.953 208.43 452.825 208.655L459.571 209.184C462.207 209.391 464.737 210.312 466.889 211.849C467.495 212.282 468.068 212.762 468.601 213.283L471.225 215.847C477.476 221.956 481 230.327 481 239.067V241.919C481 244.674 480.41 247.398 479.27 249.906C478.429 251.757 477.3 253.463 475.926 254.962L474.7 256.3L471.4 259.3C469.005 261.296 466.439 263.078 463.731 264.625L461.5 265.9L459.144 267.129C456.123 268.706 452.949 269.972 449.671 270.908C445.969 271.966 442.401 273.444 439.035 275.314L438.7 275.5L424.9 282.4L415 288.1L409.076 291.706C408.428 292.101 407.829 292.571 407.292 293.108L405.44 294.96C404.838 295.562 404.022 295.9 403.17 295.9C402.476 295.9 401.8 296.125 401.244 296.542L399.58 297.79C398.864 298.327 398.227 298.964 397.69 299.68L397.528 299.896C396.394 301.408 394.9 302.613 393.182 303.4L391.205 304.306C389.477 305.098 387.872 306.133 386.438 307.38L381.7 311.5L372.7 321.4Z" fill="white"/>
</svg>
