<svg width="904" height="904" viewBox="0 0 904 904" fill="none" xmlns="http://www.w3.org/2000/svg">
<path d="M686.7 549.4L686.483 549.626C681.835 554.468 677.57 559.664 673.726 565.167L670.608 569.632C667.743 573.734 665.295 578.111 663.3 582.7L659.4 592.6L655.662 601.322C653.357 606.699 650.639 611.89 647.532 616.846L642.644 624.644C640.624 627.867 638.188 630.811 635.4 633.4L633.407 635.031C632.54 635.74 631.784 636.573 631.163 637.505C630.591 638.364 629.902 639.141 629.118 639.813L627.741 640.994C626.649 641.929 625.642 642.96 624.732 644.073L623.4 645.7L619.5 649.9C617.705 651.496 615.746 652.896 613.655 654.078L613.068 654.41C610.96 655.601 608.964 656.98 607.105 658.529L606.3 659.2C602.316 661.789 598.019 663.86 593.511 665.363L592.2 665.8C584.035 667.991 575.618 669.1 567.165 669.1H553.721C546.617 669.1 539.558 667.987 532.8 665.8L516.6 662.8L509.717 660.637C507.324 659.885 505.081 658.721 503.088 657.197C501.701 656.136 500.191 655.248 498.59 654.552L498.11 654.344C495.456 653.189 493.014 651.597 490.887 649.634L490.2 649L487.2 645.7C485.02 643.52 483.276 640.944 482.062 638.11L481.2 636.1L477.3 628.9L474.3 622.6L471 616L467.4 605.8L464.4 596.2L461.1 586.9L457.8 576.4L454.2 566.2L447.6 552.7L446.576 550.698C442.864 543.444 438.593 536.49 433.8 529.9L430.36 525.986C426.866 522.01 422.904 518.472 418.559 515.449L412.808 511.449C411.807 510.753 410.904 509.925 410.124 508.988C408.921 507.545 407.433 506.366 405.752 505.526L401.7 503.5L394.8 499.9L387.6 496.9L379.2 493.9L377.455 493.438C371.846 491.953 366.475 489.685 361.5 486.7L358.97 485.097C354.724 482.409 351.221 478.698 348.781 474.306C346.301 469.842 345 464.821 345 459.714V444.662C345 441.943 345.768 439.279 347.215 436.976C349.933 432.652 354.732 430.085 359.837 430.225L380.574 430.79C383.18 430.861 385.684 431.818 387.675 433.502C388.224 433.966 388.815 434.378 389.441 434.732L392.255 436.322C394.346 437.504 396.305 438.905 398.1 440.5L398.383 440.811C400.19 442.799 401.803 444.955 403.2 447.25L404.609 449.564C405.068 450.32 405.6 451.029 406.195 451.684C407.581 453.209 408.61 455.023 409.208 456.996L411.3 463.9C413.098 467.895 415.181 471.755 417.532 475.451L418.2 476.5L426.9 486.7L435.3 496L435.578 496.402C437.169 498.7 439.294 500.575 441.772 501.868L442.97 502.493C444.243 503.157 445.369 504.073 446.279 505.185C447.151 506.252 448.223 507.138 449.434 507.795L458.1 512.5L465.845 517.376C471.369 520.854 477.764 522.7 484.292 522.7H487.46C489.863 522.7 492.244 522.232 494.469 521.322C496.604 520.448 498.557 519.184 500.228 517.593L501.241 516.627C503.06 514.895 504.499 512.802 505.465 510.483L506.373 508.305C506.786 507.314 507.41 506.424 508.202 505.698C509.73 504.298 510.6 502.32 510.6 500.247V495.846C510.6 494.216 509.953 492.653 508.8 491.5C507.647 490.347 507 488.784 507 487.154V476.525C507 474.754 506.439 473.029 505.397 471.596C504.869 470.87 504.461 470.064 504.189 469.208L500.4 457.3L497.4 446.8L496.064 441.579C494.76 436.482 492.789 431.58 490.2 427L487.2 420.7L484.2 414.7L480.6 407.8L477.6 401.2C475.411 396.822 472.618 392.772 469.304 389.17L467.4 387.1L460.8 381.4L458.1 378.4L453.9 374.5C452.124 372.921 450.672 370.996 449.647 368.852C448.497 366.448 447.9 363.817 447.9 361.151V338.75C447.9 336.274 448.828 333.887 450.501 332.062C450.966 331.555 451.376 331.002 451.726 330.41L453.856 326.806C454.682 325.407 455.681 324.119 456.829 322.971C457.675 322.125 458.596 321.36 459.583 320.685L461.962 319.057C463.185 318.221 464.477 317.49 465.824 316.872C469.235 315.309 472.942 314.5 476.694 314.5H481.92C485.545 314.5 489.076 315.656 492 317.8L494.779 319.606C496.913 320.993 498.81 322.713 500.4 324.7L504.3 331.3C506.47 335.048 507.735 339.251 507.994 343.575L510.6 387.1L513.02 398.981C513.604 401.849 514.541 404.635 515.807 407.274C516.932 409.618 517.797 412.078 518.386 414.61L520.5 423.7L523.8 433.9L527.1 443.5L528.469 447.855C529.754 451.943 531.404 455.908 533.4 459.7L536.7 466.6L538.393 469.986C539.65 472.5 541.425 474.72 543.6 476.5L545.015 477.679C546.453 478.878 547.602 480.385 548.377 482.089C549.556 484.684 551.591 486.796 554.14 488.07L556.117 489.058C556.958 489.479 557.674 490.112 558.196 490.894C559.198 492.397 560.885 493.3 562.692 493.3H568.416C571.528 493.3 574.497 491.994 576.6 489.7L577.375 489.054C579.236 487.503 580.739 485.567 581.781 483.38C582.718 481.412 584.03 479.646 585.642 478.18L586.5 477.4L587.564 476.549C589.818 474.745 591.582 472.403 592.692 469.738L593.542 467.7C593.844 466.974 594.286 466.314 594.842 465.758L596.155 464.445C596.686 463.914 596.932 463.161 596.818 462.418L596.67 461.456C596.528 460.532 597.242 459.7 598.176 459.7C599.018 459.7 599.7 459.018 599.7 458.176V452.8C599.7 451.806 600.506 451 601.5 451C602.494 451 603.3 450.194 603.3 449.2V441.7C603.3 440.706 604.106 439.9 605.1 439.9C606.094 439.9 606.9 439.094 606.9 438.1V432.643C606.9 431.129 607.431 429.663 608.4 428.5C609.369 427.337 609.9 425.871 609.9 424.357V416.03C609.9 414.61 610.499 413.255 611.55 412.3C612.601 411.345 613.2 409.99 613.2 408.57V368.424C613.2 365.907 612.636 363.421 611.55 361.15C610.464 358.879 609.9 356.393 609.9 353.876V335.518C609.9 332.527 610.396 329.556 611.369 326.728L612.224 324.24C612.868 322.367 613.891 320.646 615.229 319.186C616.073 318.266 616.793 317.24 617.372 316.134L618.084 314.775C619.222 312.603 620.66 310.601 622.356 308.828L622.499 308.678C625.073 305.987 628.164 303.844 631.587 302.377L632.7 301.9L637.721 299.922C640.945 298.652 644.379 298 647.844 298C651.511 298 655.142 298.73 658.524 300.149L662.7 301.9L663.71 302.333C667.204 303.83 670.381 305.981 673.07 308.67L674.18 309.78C675.322 310.922 676.306 312.21 677.107 313.612C678.675 316.356 679.5 319.463 679.5 322.624V338.911C679.5 342.41 678.888 345.882 677.693 349.17L676.955 351.197C676.257 353.118 675.231 354.903 673.923 356.473C673.242 357.289 672.637 358.166 672.114 359.091L671.259 360.603C669.759 363.257 667.935 365.716 665.829 367.922L665.36 368.414C663.59 370.267 661.993 372.278 660.587 374.42L656.4 380.8L651.651 387.329C650.021 389.571 648.618 391.969 647.464 394.489C646.423 396.758 645.589 399.117 644.97 401.535L642.6 410.8L639.3 420.7L636.6 434.5L633 445L629.858 457.832C629.555 459.068 629.039 460.242 628.333 461.301C627.075 463.187 626.434 465.417 626.499 467.683L627.045 486.999C627.214 492.976 628.131 498.909 629.774 504.658L630.3 506.5L632.424 512.163C632.805 513.18 633.359 514.124 634.06 514.953L635.711 516.904C636.091 517.353 636.3 517.923 636.3 518.512C636.3 519.086 636.499 519.643 636.863 520.088L639 522.7C641.497 525.197 644.884 526.6 648.415 526.6H659.132C661.406 526.6 663.577 525.649 665.12 523.978C665.898 523.135 666.845 522.467 667.899 522.015L672.6 520L678.481 516.942C679.549 516.386 680.493 515.619 681.256 514.688C682.266 513.452 683.592 512.512 685.092 511.967L686.843 511.33C688.518 510.721 690.006 509.684 691.158 508.323C692.172 507.124 693.449 506.174 694.89 505.548L697.185 504.55C698.781 503.856 700.232 502.868 701.462 501.638C702.218 500.882 703.059 500.216 703.969 499.653L708.9 496.6C711.297 494.802 713.563 492.837 715.682 490.718L719.1 487.3L726 480.7L732.3 474.1L738.6 466.6L740.277 464.02C741.753 461.75 742.922 459.295 743.756 456.719L744.427 454.643C745.332 451.847 746.823 449.275 748.8 447.1L749.679 446.221C751.285 444.615 753.11 443.244 755.1 442.15L756.873 441.175C757.687 440.727 758.434 440.167 759.091 439.509C761.127 437.473 763.953 436.43 766.825 436.655L773.571 437.184C776.207 437.391 778.737 438.312 780.889 439.849C781.495 440.282 782.068 440.762 782.601 441.283L785.225 443.847C791.476 449.956 795 458.327 795 467.067V469.919C795 472.674 794.41 475.398 793.27 477.906C792.429 479.757 791.3 481.463 789.926 482.962L788.7 484.3L785.4 487.3C783.005 489.296 780.439 491.078 777.731 492.625L775.5 493.9L773.144 495.129C770.123 496.706 766.949 497.972 763.671 498.908C759.969 499.966 756.401 501.444 753.035 503.314L752.7 503.5L738.9 510.4L729 516.1L723.076 519.706C722.428 520.101 721.829 520.571 721.292 521.108L719.44 522.96C718.838 523.562 718.022 523.9 717.17 523.9C716.476 523.9 715.8 524.125 715.244 524.542L713.58 525.79C712.864 526.327 712.227 526.964 711.69 527.68L711.528 527.896C710.394 529.408 708.9 530.613 707.182 531.4L705.205 532.306C703.477 533.098 701.872 534.133 700.438 535.38L695.7 539.5L686.7 549.4Z" fill="white" fill-opacity="0.32"/>
<path d="M421.2 363.9L420.983 364.126C416.335 368.968 412.07 374.164 408.226 379.667L405.108 384.132C402.243 388.234 399.795 392.611 397.8 397.2L393.9 407.1L390.162 415.822C387.857 421.199 385.139 426.39 382.032 431.346L377.144 439.144C375.124 442.367 372.688 445.311 369.9 447.9L367.907 449.531C367.04 450.24 366.284 451.073 365.663 452.005C365.091 452.864 364.402 453.641 363.618 454.313L362.241 455.494C361.149 456.429 360.142 457.46 359.232 458.573L357.9 460.2L354 464.4C352.205 465.996 350.246 467.396 348.155 468.578L347.568 468.91C345.46 470.101 343.464 471.48 341.605 473.029L340.8 473.7C336.816 476.289 332.519 478.36 328.011 479.863L326.7 480.3C318.535 482.491 310.118 483.6 301.665 483.6H288.221C281.117 483.6 274.058 482.487 267.3 480.3L251.1 477.3L244.217 475.137C241.824 474.385 239.581 473.221 237.588 471.697C236.201 470.636 234.691 469.748 233.09 469.052L232.61 468.844C229.956 467.689 227.514 466.097 225.387 464.134L224.7 463.5L221.7 460.2C219.52 458.02 217.776 455.444 216.562 452.61L215.7 450.6L211.8 443.4L208.8 437.1L205.5 430.5L201.9 420.3L198.9 410.7L195.6 401.4L192.3 390.9L188.7 380.7L182.1 367.2L181.076 365.198C177.364 357.944 173.093 350.99 168.3 344.4L164.86 340.486C161.366 336.51 157.404 332.972 153.059 329.949L147.308 325.949C146.307 325.253 145.404 324.425 144.624 323.488C143.421 322.045 141.933 320.866 140.252 320.026L136.2 318L129.3 314.4L122.1 311.4L113.7 308.4L111.955 307.938C106.346 306.453 100.975 304.185 96 301.2L93.4695 299.597C89.2244 296.909 85.7213 293.198 83.281 288.806C80.8013 284.342 79.5 279.321 79.5 274.214V259.162C79.5 256.443 80.2678 253.779 81.715 251.476C84.4328 247.152 89.2317 244.585 94.3367 244.725L115.074 245.29C117.68 245.361 120.184 246.318 122.175 248.002C122.724 248.466 123.315 248.878 123.941 249.232L126.755 250.822C128.846 252.004 130.805 253.405 132.6 255L132.883 255.311C134.69 257.299 136.303 259.455 137.7 261.75L139.109 264.064C139.568 264.82 140.1 265.529 140.695 266.184C142.081 267.709 143.11 269.523 143.708 271.496L145.8 278.4C147.598 282.395 149.681 286.255 152.032 289.951L152.7 291L161.4 301.2L169.8 310.5L170.078 310.902C171.669 313.2 173.794 315.075 176.272 316.368L177.47 316.993C178.743 317.657 179.869 318.573 180.779 319.685C181.651 320.752 182.723 321.638 183.934 322.295L192.6 327L200.345 331.876C205.869 335.354 212.264 337.2 218.792 337.2H221.96C224.363 337.2 226.744 336.732 228.969 335.822C231.104 334.948 233.057 333.684 234.728 332.093L235.741 331.127C237.56 329.395 238.999 327.302 239.965 324.983L240.873 322.805C241.286 321.814 241.91 320.924 242.702 320.198C244.23 318.798 245.1 316.82 245.1 314.747V310.346C245.1 308.716 244.453 307.153 243.3 306C242.147 304.847 241.5 303.284 241.5 301.654V291.025C241.5 289.254 240.939 287.529 239.897 286.096C239.369 285.37 238.961 284.564 238.689 283.708L234.9 271.8L231.9 261.3L230.564 256.079C229.26 250.982 227.289 246.08 224.7 241.5L221.7 235.2L218.7 229.2L215.1 222.3L212.1 215.7C209.911 211.322 207.118 207.272 203.804 203.67L201.9 201.6L195.3 195.9L192.6 192.9L188.4 189C186.624 187.421 185.172 185.496 184.147 183.352C182.997 180.948 182.4 178.317 182.4 175.651V153.25C182.4 150.774 183.328 148.387 185.001 146.562C185.466 146.055 185.876 145.502 186.226 144.91L188.356 141.306C189.182 139.907 190.181 138.619 191.329 137.471C192.175 136.625 193.096 135.86 194.083 135.185L196.462 133.557C197.685 132.721 198.977 131.99 200.324 131.372C203.735 129.809 207.442 129 211.194 129H216.42C220.045 129 223.576 130.156 226.5 132.3L229.279 134.106C231.413 135.493 233.31 137.213 234.9 139.2L238.8 145.8C240.97 149.548 242.235 153.751 242.494 158.075L245.1 201.6L247.52 213.481C248.104 216.349 249.041 219.135 250.307 221.774C251.432 224.118 252.297 226.578 252.886 229.11L255 238.2L258.3 248.4L261.6 258L262.969 262.355C264.254 266.443 265.904 270.408 267.9 274.2L271.2 281.1L272.893 284.486C274.15 287 275.925 289.22 278.1 291L279.515 292.179C280.953 293.378 282.102 294.885 282.877 296.589C284.056 299.184 286.091 301.296 288.64 302.57L290.617 303.558C291.458 303.979 292.174 304.612 292.696 305.394C293.698 306.897 295.385 307.8 297.192 307.8H302.916C306.028 307.8 308.997 306.494 311.1 304.2L311.875 303.554C313.736 302.003 315.239 300.067 316.281 297.88C317.218 295.912 318.53 294.146 320.142 292.68L321 291.9L322.064 291.049C324.318 289.245 326.082 286.903 327.192 284.238L328.042 282.2C328.344 281.474 328.786 280.814 329.342 280.258L330.655 278.945C331.186 278.414 331.432 277.661 331.318 276.918L331.17 275.956C331.028 275.032 331.742 274.2 332.676 274.2C333.518 274.2 334.2 273.518 334.2 272.676V267.3C334.2 266.306 335.006 265.5 336 265.5C336.994 265.5 337.8 264.694 337.8 263.7V256.2C337.8 255.206 338.606 254.4 339.6 254.4C340.594 254.4 341.4 253.594 341.4 252.6V247.143C341.4 245.629 341.931 244.163 342.9 243C343.869 241.837 344.4 240.371 344.4 238.857V230.53C344.4 229.11 344.999 227.755 346.05 226.8C347.101 225.845 347.7 224.49 347.7 223.07V182.924C347.7 180.407 347.136 177.921 346.05 175.65C344.964 173.379 344.4 170.893 344.4 168.376V150.018C344.4 147.027 344.896 144.056 345.869 141.228L346.724 138.74C347.368 136.867 348.391 135.146 349.729 133.686C350.573 132.766 351.293 131.74 351.872 130.634L352.584 129.275C353.722 127.103 355.16 125.101 356.856 123.328L356.999 123.178C359.573 120.487 362.664 118.344 366.087 116.877L367.2 116.4L372.221 114.422C375.445 113.152 378.879 112.5 382.344 112.5C386.011 112.5 389.642 113.23 393.024 114.649L397.2 116.4L398.21 116.833C401.704 118.33 404.881 120.481 407.57 123.17L408.68 124.28C409.822 125.422 410.806 126.71 411.607 128.112C413.175 130.856 414 133.963 414 137.124V153.411C414 156.91 413.388 160.382 412.193 163.67L411.455 165.697C410.757 167.618 409.731 169.403 408.423 170.973C407.742 171.789 407.137 172.666 406.614 173.591L405.759 175.103C404.259 177.757 402.435 180.216 400.329 182.422L399.86 182.914C398.09 184.767 396.493 186.778 395.087 188.92L390.9 195.3L386.151 201.829C384.521 204.071 383.118 206.469 381.964 208.989C380.923 211.258 380.089 213.617 379.47 216.035L377.1 225.3L373.8 235.2L371.1 249L367.5 259.5L364.358 272.332C364.055 273.568 363.539 274.742 362.833 275.801C361.575 277.687 360.934 279.917 360.999 282.183L361.545 301.499C361.714 307.476 362.631 313.409 364.274 319.158L364.8 321L366.924 326.663C367.305 327.68 367.859 328.624 368.56 329.453L370.211 331.404C370.591 331.853 370.8 332.423 370.8 333.012C370.8 333.586 370.999 334.143 371.363 334.588L373.5 337.2C375.997 339.697 379.384 341.1 382.915 341.1H393.632C395.906 341.1 398.077 340.149 399.62 338.478C400.398 337.635 401.345 336.967 402.399 336.515L407.1 334.5L412.981 331.442C414.049 330.886 414.993 330.119 415.756 329.188C416.766 327.952 418.092 327.012 419.592 326.467L421.343 325.83C423.018 325.221 424.506 324.184 425.658 322.823C426.672 321.624 427.949 320.674 429.39 320.048L431.685 319.05C433.281 318.356 434.732 317.368 435.962 316.138C436.718 315.382 437.559 314.716 438.469 314.153L443.4 311.1C445.797 309.302 448.063 307.337 450.182 305.218L453.6 301.8L460.5 295.2L466.8 288.6L473.1 281.1L474.777 278.52C476.253 276.25 477.422 273.795 478.256 271.219L478.927 269.143C479.832 266.347 481.323 263.775 483.3 261.6L484.179 260.721C485.785 259.115 487.61 257.744 489.6 256.65L491.373 255.675C492.187 255.227 492.934 254.667 493.591 254.009C495.627 251.973 498.453 250.93 501.325 251.155L508.071 251.684C510.707 251.891 513.237 252.812 515.389 254.349C515.995 254.782 516.568 255.262 517.101 255.783L519.725 258.347C525.976 264.456 529.5 272.827 529.5 281.567V284.419C529.5 287.174 528.91 289.898 527.77 292.406C526.929 294.257 525.8 295.963 524.426 297.462L523.2 298.8L519.9 301.8C517.505 303.796 514.939 305.578 512.231 307.125L510 308.4L507.644 309.629C504.623 311.206 501.449 312.472 498.171 313.408C494.469 314.466 490.901 315.944 487.535 317.814L487.2 318L473.4 324.9L463.5 330.6L457.576 334.206C456.928 334.601 456.329 335.071 455.792 335.608L453.94 337.46C453.338 338.062 452.522 338.4 451.67 338.4C450.976 338.4 450.3 338.625 449.744 339.042L448.08 340.29C447.364 340.827 446.727 341.464 446.19 342.18L446.028 342.396C444.894 343.908 443.4 345.113 441.682 345.9L439.705 346.806C437.977 347.598 436.372 348.633 434.938 349.88L430.2 354L421.2 363.9Z" fill="white"/>
</svg>
